<?xml version="1.0" encoding="UTF-8"?>
<svg version="1.1" xmlns="http://www.w3.org/2000/svg" width="640" height="640">
<path d="M0 0 C1.79038696 0.00131424 1.79038696 0.00131424 3.61694336 0.00265503 C22.32110235 0.04789087 40.41244143 0.74980577 58.8125 4.375 C60.04677734 4.61637695 61.28105469 4.85775391 62.55273438 5.10644531 C104.31534734 13.55460748 143.38720844 29.81037833 178.94750977 53.22094727 C181.82755974 55.00311721 184.59583493 56.30277831 187.8125 57.375 C188.1425 58.365 188.4725 59.355 188.8125 60.375 C190.56626928 61.79193801 190.56626928 61.79193801 192.6875 63 C193.38617187 63.42539062 194.08484375 63.85078125 194.8046875 64.2890625 C196.91516341 65.50542552 196.91516341 65.50542552 199.8125 66.375 C200.1425 67.365 200.4725 68.355 200.8125 69.375 C201.7715625 69.5915625 201.7715625 69.5915625 202.75 69.8125 C203.430625 69.998125 204.11125 70.18375 204.8125 70.375 C205.47916667 71.70833333 206.14583333 73.04166667 206.8125 74.375 C207.4725 74.54 208.1325 74.705 208.8125 74.875 C209.4725 75.04 210.1325 75.205 210.8125 75.375 C211.875 77.3125 211.875 77.3125 212.8125 79.375 C215.55512618 81.34840108 215.55512618 81.34840108 217.8125 82.1875 C219.8125 83.375 219.8125 83.375 221.06640625 85.5625 C223.23033377 89.04802084 225.84009231 91.69512445 228.75 94.5625 C229.53793945 95.36204102 229.53793945 95.36204102 230.34179688 96.17773438 C233.00516777 98.82777175 235.38750815 100.83692496 238.8125 102.375 C239.875 104.3125 239.875 104.3125 240.8125 106.375 C242.70214785 108.51112366 244.39610724 109.76407149 246.8125 111.375 C246.956875 112.035 247.10125 112.695 247.25 113.375 C247.435625 114.035 247.62125 114.695 247.8125 115.375 C248.4725 115.705 249.1325 116.035 249.8125 116.375 C250.4725 116.705 251.1325 117.035 251.8125 117.375 C252.17412029 118.70094105 252.50978039 120.03438457 252.8125 121.375 C253.8025 121.705 254.7925 122.035 255.8125 122.375 C256.1425 123.365 256.4725 124.355 256.8125 125.375 C257.4725 125.705 258.1325 126.035 258.8125 126.375 C259.1425 127.365 259.4725 128.355 259.8125 129.375 C260.4725 129.705 261.1325 130.035 261.8125 130.375 C262.1425 131.365 262.4725 132.355 262.8125 133.375 C263.36808594 133.90222656 263.92367187 134.42945313 264.49609375 134.97265625 C267.91489464 138.51829292 270.29360407 142.63475615 272.875 146.8125 C273.66874023 148.0819043 273.66874023 148.0819043 274.47851562 149.37695312 C275.9313166 151.70471579 277.37373125 154.03854712 278.8125 156.375 C279.72322266 157.84259766 279.72322266 157.84259766 280.65234375 159.33984375 C281.8125 161.375 281.8125 161.375 282.3125 163.5 C282.66565424 165.46262523 282.66565424 165.46262523 284.20458984 166.74316406 C287.09480747 169.67638827 288.61556102 173.4693676 290.4375 177.125 C290.84484375 177.91132813 291.2521875 178.69765625 291.671875 179.5078125 C294.02771123 184.20388339 295.40566673 188.1282537 295.8125 193.375 C296.4725 193.375 297.1325 193.375 297.8125 193.375 C298.4725 196.675 299.1325 199.975 299.8125 203.375 C300.4725 203.375 301.1325 203.375 301.8125 203.375 C301.956875 204.138125 302.10125 204.90125 302.25 205.6875 C302.97711078 209.16147375 303.82642649 211.39588973 305.8125 214.375 C306.39591862 215.60606681 306.93591949 216.85838255 307.4375 218.125 C307.69789063 218.75921875 307.95828125 219.3934375 308.2265625 220.046875 C308.8125 222.375 308.8125 222.375 308.6953125 225.33984375 C308.5828803 231.12625144 310.56476457 236.65278685 312.0625 242.1875 C317.42939084 262.76374228 320.89420071 283.78207256 321.05078125 305.07421875 C321.06062042 306.17498245 321.07045959 307.27574615 321.08059692 308.40986633 C321.31875542 341.97560644 318.81829229 372.88070253 310.50512695 405.43188477 C309.5437993 409.51676485 308.90074417 413.58080251 308.4375 417.75 C307.71439389 421.94401544 306.40279394 425.43383675 304.8125 429.375 C304.1525 429.375 303.4925 429.375 302.8125 429.375 C302.8640625 430.23351562 302.915625 431.09203125 302.96875 431.9765625 C302.79399863 435.77740475 301.85179696 438.28658184 300.3125 441.75 C299.8484375 442.80960937 299.384375 443.86921875 298.90625 444.9609375 C298.5453125 445.75757813 298.184375 446.55421875 297.8125 447.375 C297.1525 447.375 296.4925 447.375 295.8125 447.375 C295.69841797 448.82326172 295.69841797 448.82326172 295.58203125 450.30078125 C294.87335301 455.18319487 292.74459619 459.21597807 290.5 463.5625 C290.05922119 464.42818604 289.61844238 465.29387207 289.16430664 466.18579102 C269.27840632 504.64204684 269.27840632 504.64204684 261.8125 508.375 C261.4825 509.365 261.1525 510.355 260.8125 511.375 C259.8225 511.87 259.8225 511.87 258.8125 512.375 C258.4825 513.365 258.1525 514.355 257.8125 515.375 C257.1525 515.705 256.4925 516.035 255.8125 516.375 C255.4825 517.035 255.1525 517.695 254.8125 518.375 C253.8125 520.375 253.8125 520.375 251.8125 521.375 C251.503125 522.035 251.19375 522.695 250.875 523.375 C249.8125 525.375 249.8125 525.375 246.8125 526.375 C246.68875 526.99375 246.565 527.6125 246.4375 528.25 C245.8125 530.375 245.8125 530.375 243.375 531.8125 C240.26049471 533.71158859 240.05933831 535.05009785 238.8125 538.375 C237.125 539.8125 237.125 539.8125 234.8125 541.375 C226.12917869 547.91660631 226.12917869 547.91660631 219.92578125 556.4609375 C218.38368781 559.11225605 216.64577338 559.3187358 213.8125 560.375 C211.35132796 562.19147289 211.35132796 562.19147289 209.0625 564.3125 C208.28390625 565.00214844 207.5053125 565.69179688 206.703125 566.40234375 C204.59182593 568.32348018 204.59182593 568.32348018 203.8125 571.375 C202.47916667 571.70833333 201.14583333 572.04166667 199.8125 572.375 C199.4825 573.365 199.1525 574.355 198.8125 575.375 C197.49063486 575.75124652 196.15435129 576.07780645 194.8125 576.375 C192.76619453 577.59737048 192.76619453 577.59737048 190.71484375 579.1484375 C189.92343994 579.72037842 189.13203613 580.29231934 188.31665039 580.8815918 C187.46965576 581.4981665 186.62266113 582.11474121 185.75 582.75 C176.09955425 589.62890991 166.19706184 595.68030767 155.8125 601.375 C154.9973291 601.8297168 154.1821582 602.28443359 153.34228516 602.75292969 C112.0619128 625.70163698 63.33126637 640.38636539 15.90234375 640.578125 C14.77719864 640.58382507 13.65205353 640.58952515 12.49281311 640.59539795 C10.11525395 640.60480171 7.73768203 640.61136342 5.36010742 640.61523438 C1.81208867 640.62483205 -1.73532255 640.6558556 -5.28320312 640.6875 C-25.53702955 640.78241569 -45.46835244 639.11178193 -65.25 634.625 C-66.40862549 634.36750977 -67.56725098 634.11001953 -68.76098633 633.84472656 C-111.33278129 624.15755721 -151.32690396 606.54343126 -186.68359375 580.87109375 C-190.36597524 578.21557738 -193.85277403 575.81990866 -198.1875 574.375 C-198.6825 572.89 -198.6825 572.89 -199.1875 571.375 C-199.826875 571.230625 -200.46625 571.08625 -201.125 570.9375 C-201.805625 570.751875 -202.48625 570.56625 -203.1875 570.375 C-203.85416667 569.04166667 -204.52083333 567.70833333 -205.1875 566.375 C-205.8475 566.21 -206.5075 566.045 -207.1875 565.875 C-207.8475 565.71 -208.5075 565.545 -209.1875 565.375 C-210.25 563.4375 -210.25 563.4375 -211.1875 561.375 C-213.93012618 559.40159892 -213.93012618 559.40159892 -216.1875 558.5625 C-218.1875 557.375 -218.1875 557.375 -219.47265625 555.15625 C-221.47727443 551.90502416 -223.92100556 549.34805678 -226.625 546.6875 C-227.10259766 546.20216797 -227.58019531 545.71683594 -228.07226562 545.21679688 C-230.62154882 542.68150152 -232.92816872 540.86731341 -236.1875 539.375 C-236.88901152 538.0596659 -237.55275925 536.72382408 -238.1875 535.375 C-240.41198243 532.93524508 -242.42620548 531.21586301 -245.1875 529.375 C-245.331875 528.715 -245.47625 528.055 -245.625 527.375 C-245.810625 526.715 -245.99625 526.055 -246.1875 525.375 C-246.8475 525.045 -247.5075 524.715 -248.1875 524.375 C-248.8475 524.045 -249.5075 523.715 -250.1875 523.375 C-250.54912029 522.04905895 -250.88478039 520.71561543 -251.1875 519.375 C-252.1775 519.045 -253.1675 518.715 -254.1875 518.375 C-254.6825 516.89 -254.6825 516.89 -255.1875 515.375 C-255.8475 515.045 -256.5075 514.715 -257.1875 514.375 C-257.6825 512.89 -257.6825 512.89 -258.1875 511.375 C-258.8475 511.045 -259.5075 510.715 -260.1875 510.375 C-260.6825 508.89 -260.6825 508.89 -261.1875 507.375 C-261.75210938 506.83101563 -262.31671875 506.28703125 -262.8984375 505.7265625 C-266.11742991 502.41967951 -268.38030295 498.65688561 -270.8125 494.75 C-271.33739014 493.91114258 -271.86228027 493.07228516 -272.40307617 492.20800781 C-291.89141625 460.78412643 -291.89141625 460.78412643 -294.74609375 449.0859375 C-295.09702391 447.12677976 -295.09702391 447.12677976 -297.1875 445.375 C-299.76014976 440.15458661 -301.81000286 435.28877716 -301.1875 429.375 C-301.8475 429.375 -302.5075 429.375 -303.1875 429.375 C-303.86869072 427.6933104 -304.53174053 426.00426837 -305.1875 424.3125 C-305.55875 423.37277344 -305.93 422.43304688 -306.3125 421.46484375 C-307.1875 418.375 -307.1875 418.375 -307.109375 415.30859375 C-307.22553822 409.45977571 -308.92006393 404.12635763 -310.4375 398.5 C-312.91168211 388.98857452 -315.04420138 379.52457974 -316.5625 369.8125 C-316.79501465 368.3267749 -316.79501465 368.3267749 -317.03222656 366.81103516 C-318.59379096 356.33005682 -319.3475762 345.96239403 -319.390625 335.3671875 C-319.39632507 334.24345734 -319.40202515 333.11972717 -319.40789795 331.96194458 C-319.41729263 329.59036177 -319.42385974 327.21876622 -319.42773438 324.84716797 C-319.43734249 321.30802003 -319.46837964 317.76947852 -319.5 314.23046875 C-319.59209609 294.52121659 -318.09317085 275.01340689 -313.75 255.75 C-313.53899658 254.769104 -313.32799316 253.78820801 -313.1105957 252.77758789 C-311.61526451 245.9437951 -309.88439026 239.19974241 -307.88671875 232.49609375 C-307.05588784 229.33375334 -307.05588784 229.33375334 -307.20703125 225.84375 C-307.18654251 222.20494918 -306.51618922 219.80074458 -305.1875 216.4375 C-304.81625 215.47972656 -304.445 214.52195313 -304.0625 213.53515625 C-303.77375 212.82230469 -303.485 212.10945312 -303.1875 211.375 C-302.5275 211.375 -301.8675 211.375 -301.1875 211.375 C-301.22875 210.42625 -301.27 209.4775 -301.3125 208.5 C-301.1875 205.375 -301.1875 205.375 -299.1875 203.375 C-296.89116176 199.93049263 -296.64733515 197.43687717 -296.1875 193.375 C-295.5275 193.375 -294.8675 193.375 -294.1875 193.375 C-294.12304688 192.43398437 -294.05859375 191.49296875 -293.9921875 190.5234375 C-293.2307439 185.22004962 -290.72542643 180.72332057 -288.3125 176 C-287.86519531 175.08605469 -287.41789062 174.17210937 -286.95703125 173.23046875 C-286.52003906 172.36292969 -286.08304687 171.49539062 -285.6328125 170.6015625 C-285.23594238 169.81346191 -284.83907227 169.02536133 -284.43017578 168.21337891 C-283.1875 166.375 -283.1875 166.375 -280.1875 165.375 C-280.14109375 164.57964844 -280.0946875 163.78429687 -280.046875 162.96484375 C-278.84435555 157.94159206 -276.25166866 154.22240681 -273.4375 149.9375 C-272.64859375 148.70676758 -272.64859375 148.70676758 -271.84375 147.45117188 C-263.04231081 133.8024054 -263.04231081 133.8024054 -260.1875 132.375 C-259.8575 131.385 -259.5275 130.395 -259.1875 129.375 C-258.5275 129.045 -257.8675 128.715 -257.1875 128.375 C-256.6925 126.89 -256.6925 126.89 -256.1875 125.375 C-255.5275 125.045 -254.8675 124.715 -254.1875 124.375 C-253.6925 122.89 -253.6925 122.89 -253.1875 121.375 C-252.1975 121.045 -251.2075 120.715 -250.1875 120.375 C-250.043125 119.735625 -249.89875 119.09625 -249.75 118.4375 C-249.564375 117.756875 -249.37875 117.07625 -249.1875 116.375 C-247.85416667 115.70833333 -246.52083333 115.04166667 -245.1875 114.375 C-245.043125 113.735625 -244.89875 113.09625 -244.75 112.4375 C-243.92104092 109.39798337 -241.80868426 108.94771055 -239.1875 107.375 C-238.8153958 106.05196283 -238.48119827 104.71762065 -238.1875 103.375 C-236.5625 102 -236.5625 102 -234.1875 100.375 C-224.96122925 93.28375872 -224.96122925 93.28375872 -218.109375 84.1953125 C-216.77854883 81.56749472 -214.86725786 81.42075916 -212.1875 80.375 C-210.49252576 78.43788658 -209.33505526 76.67011052 -208.1875 74.375 C-207.548125 74.25125 -206.90875 74.1275 -206.25 74 C-205.569375 73.79375 -204.88875 73.5875 -204.1875 73.375 C-203.8575 72.715 -203.5275 72.055 -203.1875 71.375 C-202.8575 70.715 -202.5275 70.055 -202.1875 69.375 C-201.63449219 69.25898437 -201.08148438 69.14296875 -200.51171875 69.0234375 C-197.17006801 68.09114502 -194.71787105 66.07200784 -192 64 C-191.45408203 63.60039063 -190.90816406 63.20078125 -190.34570312 62.7890625 C-187.60256242 60.72235921 -186.29798883 59.70646648 -185.1875 56.375 C-184.49527344 56.29894531 -183.80304688 56.22289062 -183.08984375 56.14453125 C-179.41896786 55.17123038 -176.78960555 53.24154946 -173.75 51.0625 C-135.79188679 24.8813556 -89.70513786 8.476989 -44.1875 2.375 C-42.94895264 2.19984863 -41.71040527 2.02469727 -40.43432617 1.84423828 C-26.98242739 0.06610069 -13.55175481 -0.02430187 0 0 Z M-293.1875 189.375 C-292.1875 191.375 -292.1875 191.375 -292.1875 191.375 Z M-296.1875 196.375 C-295.1875 198.375 -295.1875 198.375 -295.1875 198.375 Z M296.8125 196.375 C297.8125 198.375 297.8125 198.375 297.8125 198.375 Z M300.8125 206.375 C301.8125 208.375 301.8125 208.375 301.8125 208.375 Z M-303.1875 214.375 C-302.1875 216.375 -302.1875 216.375 -302.1875 216.375 Z M303.8125 214.375 C304.8125 216.375 304.8125 216.375 304.8125 216.375 Z M-304.1875 217.375 C-303.1875 219.375 -303.1875 219.375 -303.1875 219.375 Z M304.8125 217.375 C305.8125 219.375 305.8125 219.375 305.8125 219.375 Z M-305.1875 219.375 C-304.1875 222.375 -304.1875 222.375 -304.1875 222.375 Z M305.8125 219.375 C306.8125 222.375 306.8125 222.375 306.8125 222.375 Z M-306.1875 223.375 C-305.1875 225.375 -305.1875 225.375 -305.1875 225.375 Z M306.8125 223.375 C307.8125 225.375 307.8125 225.375 307.8125 225.375 Z M-306.1875 415.375 C-305.1875 417.375 -305.1875 417.375 -305.1875 417.375 Z M306.8125 415.375 C307.8125 417.375 307.8125 417.375 307.8125 417.375 Z M-305.1875 418.375 C-304.1875 421.375 -304.1875 421.375 -304.1875 421.375 Z M305.8125 418.375 C306.8125 421.375 306.8125 421.375 306.8125 421.375 Z M-304.1875 421.375 C-303.1875 423.375 -303.1875 423.375 -303.1875 423.375 Z M304.8125 421.375 C305.8125 423.375 305.8125 423.375 305.8125 423.375 Z M-303.1875 424.375 C-302.1875 426.375 -302.1875 426.375 -302.1875 426.375 Z M303.8125 424.375 C304.8125 426.375 304.8125 426.375 304.8125 426.375 Z M-300.1875 432.375 C-299.1875 434.375 -299.1875 434.375 -299.1875 434.375 Z M300.8125 432.375 C301.8125 434.375 301.8125 434.375 301.8125 434.375 Z M-299.1875 435.375 C-298.1875 437.375 -298.1875 437.375 -298.1875 437.375 Z M299.8125 435.375 C300.8125 437.375 300.8125 437.375 300.8125 437.375 Z M-298.1875 437.375 C-297.1875 439.375 -297.1875 439.375 -297.1875 439.375 Z M298.8125 437.375 C299.8125 439.375 299.8125 439.375 299.8125 439.375 Z M-297.1875 440.375 C-296.1875 442.375 -296.1875 442.375 -296.1875 442.375 Z M297.8125 440.375 C298.8125 442.375 298.8125 442.375 298.8125 442.375 Z " fill="#E41E25" transform="translate(319.1875,-0.375)"/>
<path d="M0 0 C73.59 0 147.18 0 223 0 C224.65 6.6 226.3 13.2 228 20 C232.14962362 29.30318844 236.35583379 37.32598803 243 45 C243.721875 45.99 244.44375 46.98 245.1875 48 C253.2032348 57.36030967 264.86955467 63.20521637 276 68 C277.0621875 68.45761719 278.124375 68.91523438 279.21875 69.38671875 C297.83881798 75.95444075 320.69589092 73.39090916 338.3359375 65.2121582 C345.18854082 61.87103644 351.22346395 58.00132992 357 53 C357.99 52.278125 358.98 51.55625 360 50.8125 C374.99895982 37.9680869 380.43436683 18.26253267 385 0 C458.59 0 532.18 0 608 0 C608 16.91216617 608 16.91216617 607.30078125 22.69140625 C607.14649658 23.97362061 606.99221191 25.25583496 606.83325195 26.5769043 C606.66116021 27.90563032 606.48754264 29.2341595 606.3125 30.5625 C606.2228598 31.25687164 606.1332196 31.95124329 606.04086304 32.66665649 C599.93515597 79.53864978 582.92345507 126.61459985 555 165 C554.53384277 165.64582031 554.06768555 166.29164063 553.58740234 166.95703125 C546.79346041 176.32304543 539.61296131 185.28957082 532 194 C531.26394531 194.84820313 530.52789063 195.69640625 529.76953125 196.5703125 C521.11543522 206.37513533 511.99242972 215.71104983 501.7265625 223.83203125 C498.85914207 226.11200022 496.09195879 228.48886085 493.3125 230.875 C482.37529093 239.99878581 470.31266878 247.86707996 458 255 C457.23510254 255.44456543 456.47020508 255.88913086 455.68212891 256.34716797 C434.14894118 268.74832842 411.6718595 277.58120919 388 285 C387.3179248 285.21881836 386.63584961 285.43763672 385.93310547 285.66308594 C375.16710557 289.10379623 364.13391164 291.16968984 353 293 C352.09991211 293.15388184 351.19982422 293.30776367 350.27246094 293.46630859 C319.6882702 298.49124224 285.50176631 298.62046014 255 293 C253.28272705 292.69400879 253.28272705 292.69400879 251.53076172 292.38183594 C235.27726634 289.42743686 219.56144543 285.54275469 204 280 C203.14035645 279.69868164 202.28071289 279.39736328 201.39501953 279.08691406 C164.86433971 266.169611 130.76888232 246.31762586 102.21484375 220.03125 C100.24160756 218.22158012 98.22892187 216.48160109 96.1875 214.75 C87.45499651 207.11347873 79.35423365 198.81515581 72.16015625 189.71484375 C69.92783932 186.90930981 67.59394516 184.21265564 65.25 181.5 C54.84299428 169.02130418 45.97958423 155.13708659 38 141 C37.61279785 140.32130859 37.2255957 139.64261719 36.82666016 138.94335938 C13.08164477 96.93809273 0 48.17951852 0 0 Z " fill="#FEFEFE" transform="translate(16,328)"/>
<path d="M0 0 C1.79038696 0.00131424 1.79038696 0.00131424 3.61694336 0.00265503 C22.32110235 0.04789087 40.41244143 0.74980577 58.8125 4.375 C60.04677734 4.61637695 61.28105469 4.85775391 62.55273438 5.10644531 C104.31534734 13.55460748 143.38720844 29.81037833 178.94750977 53.22094727 C181.82755974 55.00311721 184.59583493 56.30277831 187.8125 57.375 C188.1425 58.365 188.4725 59.355 188.8125 60.375 C190.56626928 61.79193801 190.56626928 61.79193801 192.6875 63 C193.38617187 63.42539062 194.08484375 63.85078125 194.8046875 64.2890625 C196.91516341 65.50542552 196.91516341 65.50542552 199.8125 66.375 C200.1425 67.365 200.4725 68.355 200.8125 69.375 C201.7715625 69.5915625 201.7715625 69.5915625 202.75 69.8125 C203.430625 69.998125 204.11125 70.18375 204.8125 70.375 C205.47916667 71.70833333 206.14583333 73.04166667 206.8125 74.375 C207.4725 74.54 208.1325 74.705 208.8125 74.875 C209.4725 75.04 210.1325 75.205 210.8125 75.375 C211.875 77.3125 211.875 77.3125 212.8125 79.375 C215.55512618 81.34840108 215.55512618 81.34840108 217.8125 82.1875 C219.8125 83.375 219.8125 83.375 221.06640625 85.5625 C223.23033377 89.04802084 225.84009231 91.69512445 228.75 94.5625 C229.53793945 95.36204102 229.53793945 95.36204102 230.34179688 96.17773438 C233.00516777 98.82777175 235.38750815 100.83692496 238.8125 102.375 C239.875 104.3125 239.875 104.3125 240.8125 106.375 C242.70214785 108.51112366 244.39610724 109.76407149 246.8125 111.375 C246.956875 112.035 247.10125 112.695 247.25 113.375 C247.435625 114.035 247.62125 114.695 247.8125 115.375 C248.4725 115.705 249.1325 116.035 249.8125 116.375 C250.4725 116.705 251.1325 117.035 251.8125 117.375 C252.17412029 118.70094105 252.50978039 120.03438457 252.8125 121.375 C253.8025 121.705 254.7925 122.035 255.8125 122.375 C256.1425 123.365 256.4725 124.355 256.8125 125.375 C257.4725 125.705 258.1325 126.035 258.8125 126.375 C259.1425 127.365 259.4725 128.355 259.8125 129.375 C260.4725 129.705 261.1325 130.035 261.8125 130.375 C262.1425 131.365 262.4725 132.355 262.8125 133.375 C263.36808594 133.90222656 263.92367187 134.42945313 264.49609375 134.97265625 C267.91489464 138.51829292 270.29360407 142.63475615 272.875 146.8125 C273.66874023 148.0819043 273.66874023 148.0819043 274.47851562 149.37695312 C275.9313166 151.70471579 277.37373125 154.03854712 278.8125 156.375 C279.72322266 157.84259766 279.72322266 157.84259766 280.65234375 159.33984375 C281.8125 161.375 281.8125 161.375 282.3125 163.5 C282.66565424 165.46262523 282.66565424 165.46262523 284.20458984 166.74316406 C287.09480747 169.67638827 288.61556102 173.4693676 290.4375 177.125 C290.84484375 177.91132813 291.2521875 178.69765625 291.671875 179.5078125 C294.02771123 184.20388339 295.40566673 188.1282537 295.8125 193.375 C296.4725 193.375 297.1325 193.375 297.8125 193.375 C298.4725 196.675 299.1325 199.975 299.8125 203.375 C300.4725 203.375 301.1325 203.375 301.8125 203.375 C301.956875 204.138125 302.10125 204.90125 302.25 205.6875 C302.97711078 209.16147375 303.82642649 211.39588973 305.8125 214.375 C306.39591862 215.60606681 306.93591949 216.85838255 307.4375 218.125 C307.69789063 218.75921875 307.95828125 219.3934375 308.2265625 220.046875 C308.8125 222.375 308.8125 222.375 308.6953125 225.33984375 C308.5828803 231.12625144 310.56476457 236.65278685 312.0625 242.1875 C317.42939084 262.76374228 320.89420071 283.78207256 321.05078125 305.07421875 C321.06062042 306.17498245 321.07045959 307.27574615 321.08059692 308.40986633 C321.31875542 341.97560644 318.81829229 372.88070253 310.50512695 405.43188477 C309.5437993 409.51676485 308.90074417 413.58080251 308.4375 417.75 C307.71439389 421.94401544 306.40279394 425.43383675 304.8125 429.375 C304.1525 429.375 303.4925 429.375 302.8125 429.375 C302.8640625 430.23351562 302.915625 431.09203125 302.96875 431.9765625 C302.79399863 435.77740475 301.85179696 438.28658184 300.3125 441.75 C299.8484375 442.80960937 299.384375 443.86921875 298.90625 444.9609375 C298.5453125 445.75757813 298.184375 446.55421875 297.8125 447.375 C297.1525 447.375 296.4925 447.375 295.8125 447.375 C295.69841797 448.82326172 295.69841797 448.82326172 295.58203125 450.30078125 C294.87335301 455.18319487 292.74459619 459.21597807 290.5 463.5625 C290.05922119 464.42818604 289.61844238 465.29387207 289.16430664 466.18579102 C269.27840632 504.64204684 269.27840632 504.64204684 261.8125 508.375 C261.4825 509.365 261.1525 510.355 260.8125 511.375 C259.8225 511.87 259.8225 511.87 258.8125 512.375 C258.4825 513.365 258.1525 514.355 257.8125 515.375 C257.1525 515.705 256.4925 516.035 255.8125 516.375 C255.4825 517.035 255.1525 517.695 254.8125 518.375 C253.8125 520.375 253.8125 520.375 251.8125 521.375 C251.503125 522.035 251.19375 522.695 250.875 523.375 C249.8125 525.375 249.8125 525.375 246.8125 526.375 C246.68875 526.99375 246.565 527.6125 246.4375 528.25 C245.8125 530.375 245.8125 530.375 243.375 531.8125 C240.26049471 533.71158859 240.05933831 535.05009785 238.8125 538.375 C237.125 539.8125 237.125 539.8125 234.8125 541.375 C226.12917869 547.91660631 226.12917869 547.91660631 219.92578125 556.4609375 C218.38368781 559.11225605 216.64577338 559.3187358 213.8125 560.375 C211.35132796 562.19147289 211.35132796 562.19147289 209.0625 564.3125 C208.28390625 565.00214844 207.5053125 565.69179688 206.703125 566.40234375 C204.59182593 568.32348018 204.59182593 568.32348018 203.8125 571.375 C202.47916667 571.70833333 201.14583333 572.04166667 199.8125 572.375 C199.4825 573.365 199.1525 574.355 198.8125 575.375 C197.49063486 575.75124652 196.15435129 576.07780645 194.8125 576.375 C192.76619453 577.59737048 192.76619453 577.59737048 190.71484375 579.1484375 C189.92343994 579.72037842 189.13203613 580.29231934 188.31665039 580.8815918 C187.46965576 581.4981665 186.62266113 582.11474121 185.75 582.75 C176.09955425 589.62890991 166.19706184 595.68030767 155.8125 601.375 C154.9973291 601.8297168 154.1821582 602.28443359 153.34228516 602.75292969 C112.0619128 625.70163698 63.33126637 640.38636539 15.90234375 640.578125 C14.77719864 640.58382507 13.65205353 640.58952515 12.49281311 640.59539795 C10.11525395 640.60480171 7.73768203 640.61136342 5.36010742 640.61523438 C1.81208867 640.62483205 -1.73532255 640.6558556 -5.28320312 640.6875 C-25.53702955 640.78241569 -45.46835244 639.11178193 -65.25 634.625 C-66.40862549 634.36750977 -67.56725098 634.11001953 -68.76098633 633.84472656 C-111.33278129 624.15755721 -151.32690396 606.54343126 -186.68359375 580.87109375 C-190.36597524 578.21557738 -193.85277403 575.81990866 -198.1875 574.375 C-198.6825 572.89 -198.6825 572.89 -199.1875 571.375 C-199.826875 571.230625 -200.46625 571.08625 -201.125 570.9375 C-201.805625 570.751875 -202.48625 570.56625 -203.1875 570.375 C-203.85416667 569.04166667 -204.52083333 567.70833333 -205.1875 566.375 C-205.8475 566.21 -206.5075 566.045 -207.1875 565.875 C-207.8475 565.71 -208.5075 565.545 -209.1875 565.375 C-210.25 563.4375 -210.25 563.4375 -211.1875 561.375 C-213.93012618 559.40159892 -213.93012618 559.40159892 -216.1875 558.5625 C-218.1875 557.375 -218.1875 557.375 -219.47265625 555.15625 C-221.47727443 551.90502416 -223.92100556 549.34805678 -226.625 546.6875 C-227.10259766 546.20216797 -227.58019531 545.71683594 -228.07226562 545.21679688 C-230.62154882 542.68150152 -232.92816872 540.86731341 -236.1875 539.375 C-236.88901152 538.0596659 -237.55275925 536.72382408 -238.1875 535.375 C-240.41198243 532.93524508 -242.42620548 531.21586301 -245.1875 529.375 C-245.331875 528.715 -245.47625 528.055 -245.625 527.375 C-245.810625 526.715 -245.99625 526.055 -246.1875 525.375 C-246.8475 525.045 -247.5075 524.715 -248.1875 524.375 C-248.8475 524.045 -249.5075 523.715 -250.1875 523.375 C-250.54912029 522.04905895 -250.88478039 520.71561543 -251.1875 519.375 C-252.1775 519.045 -253.1675 518.715 -254.1875 518.375 C-254.6825 516.89 -254.6825 516.89 -255.1875 515.375 C-255.8475 515.045 -256.5075 514.715 -257.1875 514.375 C-257.6825 512.89 -257.6825 512.89 -258.1875 511.375 C-258.8475 511.045 -259.5075 510.715 -260.1875 510.375 C-260.6825 508.89 -260.6825 508.89 -261.1875 507.375 C-261.75210938 506.83101563 -262.31671875 506.28703125 -262.8984375 505.7265625 C-266.11742991 502.41967951 -268.38030295 498.65688561 -270.8125 494.75 C-271.33739014 493.91114258 -271.86228027 493.07228516 -272.40307617 492.20800781 C-291.89141625 460.78412643 -291.89141625 460.78412643 -294.74609375 449.0859375 C-295.09702391 447.12677976 -295.09702391 447.12677976 -297.1875 445.375 C-299.76014976 440.15458661 -301.81000286 435.28877716 -301.1875 429.375 C-301.8475 429.375 -302.5075 429.375 -303.1875 429.375 C-303.86869072 427.6933104 -304.53174053 426.00426837 -305.1875 424.3125 C-305.55875 423.37277344 -305.93 422.43304688 -306.3125 421.46484375 C-307.1875 418.375 -307.1875 418.375 -307.109375 415.30859375 C-307.22553822 409.45977571 -308.92006393 404.12635763 -310.4375 398.5 C-312.91168211 388.98857452 -315.04420138 379.52457974 -316.5625 369.8125 C-316.79501465 368.3267749 -316.79501465 368.3267749 -317.03222656 366.81103516 C-318.59379096 356.33005682 -319.3475762 345.96239403 -319.390625 335.3671875 C-319.39632507 334.24345734 -319.40202515 333.11972717 -319.40789795 331.96194458 C-319.41729263 329.59036177 -319.42385974 327.21876622 -319.42773438 324.84716797 C-319.43734249 321.30802003 -319.46837964 317.76947852 -319.5 314.23046875 C-319.59209609 294.52121659 -318.09317085 275.01340689 -313.75 255.75 C-313.53899658 254.769104 -313.32799316 253.78820801 -313.1105957 252.77758789 C-311.61526451 245.9437951 -309.88439026 239.19974241 -307.88671875 232.49609375 C-307.05588784 229.33375334 -307.05588784 229.33375334 -307.20703125 225.84375 C-307.18654251 222.20494918 -306.51618922 219.80074458 -305.1875 216.4375 C-304.81625 215.47972656 -304.445 214.52195313 -304.0625 213.53515625 C-303.77375 212.82230469 -303.485 212.10945312 -303.1875 211.375 C-302.5275 211.375 -301.8675 211.375 -301.1875 211.375 C-301.22875 210.42625 -301.27 209.4775 -301.3125 208.5 C-301.1875 205.375 -301.1875 205.375 -299.1875 203.375 C-296.89116176 199.93049263 -296.64733515 197.43687717 -296.1875 193.375 C-295.5275 193.375 -294.8675 193.375 -294.1875 193.375 C-294.12304688 192.43398437 -294.05859375 191.49296875 -293.9921875 190.5234375 C-293.2307439 185.22004962 -290.72542643 180.72332057 -288.3125 176 C-287.86519531 175.08605469 -287.41789062 174.17210937 -286.95703125 173.23046875 C-286.52003906 172.36292969 -286.08304687 171.49539062 -285.6328125 170.6015625 C-285.23594238 169.81346191 -284.83907227 169.02536133 -284.43017578 168.21337891 C-283.1875 166.375 -283.1875 166.375 -280.1875 165.375 C-280.14109375 164.57964844 -280.0946875 163.78429687 -280.046875 162.96484375 C-278.84435555 157.94159206 -276.25166866 154.22240681 -273.4375 149.9375 C-272.64859375 148.70676758 -272.64859375 148.70676758 -271.84375 147.45117188 C-263.04231081 133.8024054 -263.04231081 133.8024054 -260.1875 132.375 C-259.8575 131.385 -259.5275 130.395 -259.1875 129.375 C-258.5275 129.045 -257.8675 128.715 -257.1875 128.375 C-256.6925 126.89 -256.6925 126.89 -256.1875 125.375 C-255.5275 125.045 -254.8675 124.715 -254.1875 124.375 C-253.6925 122.89 -253.6925 122.89 -253.1875 121.375 C-252.1975 121.045 -251.2075 120.715 -250.1875 120.375 C-250.043125 119.735625 -249.89875 119.09625 -249.75 118.4375 C-249.564375 117.756875 -249.37875 117.07625 -249.1875 116.375 C-247.85416667 115.70833333 -246.52083333 115.04166667 -245.1875 114.375 C-245.043125 113.735625 -244.89875 113.09625 -244.75 112.4375 C-243.92104092 109.39798337 -241.80868426 108.94771055 -239.1875 107.375 C-238.8153958 106.05196283 -238.48119827 104.71762065 -238.1875 103.375 C-236.5625 102 -236.5625 102 -234.1875 100.375 C-224.96122925 93.28375872 -224.96122925 93.28375872 -218.109375 84.1953125 C-216.77854883 81.56749472 -214.86725786 81.42075916 -212.1875 80.375 C-210.49252576 78.43788658 -209.33505526 76.67011052 -208.1875 74.375 C-207.548125 74.25125 -206.90875 74.1275 -206.25 74 C-205.569375 73.79375 -204.88875 73.5875 -204.1875 73.375 C-203.8575 72.715 -203.5275 72.055 -203.1875 71.375 C-202.8575 70.715 -202.5275 70.055 -202.1875 69.375 C-201.63449219 69.25898437 -201.08148438 69.14296875 -200.51171875 69.0234375 C-197.17006801 68.09114502 -194.71787105 66.07200784 -192 64 C-191.45408203 63.60039063 -190.90816406 63.20078125 -190.34570312 62.7890625 C-187.60256242 60.72235921 -186.29798883 59.70646648 -185.1875 56.375 C-184.49527344 56.29894531 -183.80304688 56.22289062 -183.08984375 56.14453125 C-179.41896786 55.17123038 -176.78960555 53.24154946 -173.75 51.0625 C-135.79188679 24.8813556 -89.70513786 8.476989 -44.1875 2.375 C-42.94895264 2.19984863 -41.71040527 2.02469727 -40.43432617 1.84423828 C-26.98242739 0.06610069 -13.55175481 -0.02430187 0 0 Z M-48.1875 19.375 C-49.9207251 19.68896729 -49.9207251 19.68896729 -51.68896484 20.00927734 C-107.34559334 30.30688322 -160.03810288 54.38805982 -201.7421875 93.11328125 C-203.8528644 95.0654888 -205.99977557 96.94806278 -208.1875 98.8125 C-216.11021977 105.71030941 -223.45930049 113.31448375 -230.1875 121.375 C-230.61691895 121.87467285 -231.04633789 122.3743457 -231.48876953 122.88916016 C-270.26306462 168.07587649 -294.76373545 224.6374004 -301.9375 283.625 C-302.06543945 284.65359131 -302.19337891 285.68218262 -302.32519531 286.74194336 C-303.30137665 295.43201963 -303.1875 303.47357618 -303.1875 312.375 C-229.5975 312.375 -156.0075 312.375 -80.1875 312.375 C-78.8675 306.765 -77.5475 301.155 -76.1875 295.375 C-68.11054842 273.48221018 -54.26705866 257.09940364 -33.17895508 247.0090332 C-31.19269211 246.10297304 -29.19597195 245.23056489 -27.1875 244.375 C-26.12660156 243.91867188 -25.06570313 243.46234375 -23.97265625 242.9921875 C-5.35907051 236.41185929 17.51210463 238.98676664 35.14819336 247.16259766 C41.99806622 250.50279585 48.05173868 254.35833702 53.8125 259.375 C54.410625 259.83132813 55.00875 260.28765625 55.625 260.7578125 C70.98216266 272.75559583 78.71765533 293.80593199 81.8125 312.375 C155.4025 312.375 228.9925 312.375 304.8125 312.375 C304.82617975 298.30725812 304.82617975 298.30725812 303.625 284.4375 C303.4919043 283.38248291 303.35880859 282.32746582 303.22167969 281.24047852 C293.57653539 208.43258559 256.8527756 134.92830178 198.609375 88.61328125 C195.72391678 86.30410868 192.92950288 83.90656666 190.125 81.5 C179.18696487 72.3755251 167.12403793 64.51167569 154.8125 57.375 C153.68110596 56.71612793 153.68110596 56.71612793 152.52685547 56.04394531 C93.35375551 21.89717108 19.55217713 6.82979371 -48.1875 19.375 Z M-293.1875 189.375 C-292.1875 191.375 -292.1875 191.375 -292.1875 191.375 Z M-296.1875 196.375 C-295.1875 198.375 -295.1875 198.375 -295.1875 198.375 Z M296.8125 196.375 C297.8125 198.375 297.8125 198.375 297.8125 198.375 Z M300.8125 206.375 C301.8125 208.375 301.8125 208.375 301.8125 208.375 Z M-303.1875 214.375 C-302.1875 216.375 -302.1875 216.375 -302.1875 216.375 Z M303.8125 214.375 C304.8125 216.375 304.8125 216.375 304.8125 216.375 Z M-304.1875 217.375 C-303.1875 219.375 -303.1875 219.375 -303.1875 219.375 Z M304.8125 217.375 C305.8125 219.375 305.8125 219.375 305.8125 219.375 Z M-305.1875 219.375 C-304.1875 222.375 -304.1875 222.375 -304.1875 222.375 Z M305.8125 219.375 C306.8125 222.375 306.8125 222.375 306.8125 222.375 Z M-306.1875 223.375 C-305.1875 225.375 -305.1875 225.375 -305.1875 225.375 Z M306.8125 223.375 C307.8125 225.375 307.8125 225.375 307.8125 225.375 Z M-303.1875 328.375 C-303.1875 346.11322955 -301.46950351 362.08511325 -298.1875 379.375 C-298.04473633 380.14440918 -297.90197266 380.91381836 -297.75488281 381.70654297 C-290.28501036 421.21728481 -273.87453462 460.81325934 -250.1875 493.375 C-249.48826416 494.34373047 -249.48826416 494.34373047 -248.77490234 495.33203125 C-233.86139525 515.89154152 -216.90974284 536.30141743 -196.97265625 552.14453125 C-194.14897994 554.40584847 -191.42507632 556.76055648 -188.6875 559.125 C-175.59623894 570.0315616 -161.04018858 579.08269814 -146.1875 587.375 C-145.10662109 587.98722412 -145.10662109 587.98722412 -144.00390625 588.61181641 C-115.37591178 604.73078605 -84.16492053 614.54935515 -52 620.5625 C-51.18305664 620.71734863 -50.36611328 620.87219727 -49.52441406 621.03173828 C-33.22400782 623.95183055 -17.09299475 624.78169942 -0.5625 624.75 C0.97287918 624.74968277 0.97287918 624.74968277 2.53927612 624.74935913 C45.52867444 624.66120532 86.427565 615.73186743 125.8125 598.375 C126.56821289 598.04532227 127.32392578 597.71564453 128.10253906 597.37597656 C169.02238048 579.37417049 208.04385748 549.56097608 235.8125 514.375 C236.76751527 513.20798275 237.72466501 512.04270997 238.68359375 510.87890625 C245.64141949 502.39252653 251.96239805 493.65901661 257.8125 484.375 C258.37831787 483.4787793 258.37831787 483.4787793 258.95556641 482.56445312 C261.67373071 478.22387346 264.27514216 473.82347416 266.8125 469.375 C267.20405273 468.69050781 267.59560547 468.00601563 267.99902344 467.30078125 C287.37370108 433.01650075 298.90093896 394.72774671 303.625 355.75 C303.7492334 354.73204346 303.8734668 353.71408691 304.00146484 352.6652832 C304.90288459 344.43866299 304.8125 336.78421223 304.8125 328.375 C231.2225 328.375 157.6325 328.375 81.8125 328.375 C80.1625 334.975 78.5125 341.575 76.8125 348.375 C72.66287638 357.67818844 68.45666621 365.70098803 61.8125 373.375 C60.7296875 374.86 60.7296875 374.86 59.625 376.375 C47.88006082 390.090058 27.57475451 399.20578472 9.84716797 400.60986328 C-14.3781354 401.92617687 -35.14719253 396.84159742 -53.68530273 380.71313477 C-69.40393102 366.32539111 -75.0526634 348.9143464 -80.1875 328.375 C-153.7775 328.375 -227.3675 328.375 -303.1875 328.375 Z M-306.1875 415.375 C-305.1875 417.375 -305.1875 417.375 -305.1875 417.375 Z M306.8125 415.375 C307.8125 417.375 307.8125 417.375 307.8125 417.375 Z M-305.1875 418.375 C-304.1875 421.375 -304.1875 421.375 -304.1875 421.375 Z M305.8125 418.375 C306.8125 421.375 306.8125 421.375 306.8125 421.375 Z M-304.1875 421.375 C-303.1875 423.375 -303.1875 423.375 -303.1875 423.375 Z M304.8125 421.375 C305.8125 423.375 305.8125 423.375 305.8125 423.375 Z M-303.1875 424.375 C-302.1875 426.375 -302.1875 426.375 -302.1875 426.375 Z M303.8125 424.375 C304.8125 426.375 304.8125 426.375 304.8125 426.375 Z M-300.1875 432.375 C-299.1875 434.375 -299.1875 434.375 -299.1875 434.375 Z M300.8125 432.375 C301.8125 434.375 301.8125 434.375 301.8125 434.375 Z M-299.1875 435.375 C-298.1875 437.375 -298.1875 437.375 -298.1875 437.375 Z M299.8125 435.375 C300.8125 437.375 300.8125 437.375 300.8125 437.375 Z M-298.1875 437.375 C-297.1875 439.375 -297.1875 439.375 -297.1875 439.375 Z M298.8125 437.375 C299.8125 439.375 299.8125 439.375 299.8125 439.375 Z M-297.1875 440.375 C-296.1875 442.375 -296.1875 442.375 -296.1875 442.375 Z M297.8125 440.375 C298.8125 442.375 298.8125 442.375 298.8125 442.375 Z " fill="#2B2B2A" transform="translate(319.1875,-0.375)"/>
<path d="M0 0 C0.95132813 0.67289062 0.95132813 0.67289062 1.921875 1.359375 C14.45857526 11.13570089 22.69159008 27.45670656 25 43 C26.47901233 61.89849089 21.58168105 79.04577526 10 94 C9.56300781 94.61359375 9.12601562 95.2271875 8.67578125 95.859375 C-1.12176589 108.68739468 -18.51891012 115.76364995 -34 118 C-52.67573328 119.3458327 -69.08769318 114.18892682 -83.9375 102.75 C-92.71123239 95.07133496 -98.8515437 85.8447834 -103 75 C-103.30679687 74.2059375 -103.61359375 73.411875 -103.9296875 72.59375 C-105.65753234 67.78869578 -106.70910365 63.10779776 -107 58 C-107.06445312 56.99324219 -107.12890625 55.98648438 -107.1953125 54.94921875 C-107.82181731 36.50909384 -101.54983231 20.56903096 -89.50390625 6.56640625 C-64.68272177 -18.87433977 -28.23509443 -20.21997085 0 0 Z " fill="#FCFCFC" transform="translate(361,268)"/>
<path d="M0 0 C6.78401773 5.6784741 10.48798448 11.76082843 13.26171875 20.08203125 C14.10707126 30.76273513 12.76879594 39.91455609 5.85546875 48.3359375 C0.13983597 54.59791754 -7.88986001 59.58167544 -16.5234375 60.3203125 C-27.12327898 60.56035659 -33.96670227 58.71797173 -42.11328125 51.83203125 C-46.17575969 47.9478434 -48.85943818 44.36900825 -50.73828125 39.08203125 C-51.15078125 37.96828125 -51.56328125 36.85453125 -51.98828125 35.70703125 C-53.84395916 26.73792137 -53.1620574 17.84892264 -48.4140625 9.8515625 C-43.17678765 2.52487616 -36.19532448 -3.34789866 -27.3125 -5.5078125 C-17.32531259 -7.09909426 -8.39106523 -5.8773367 0 0 Z " fill="#FCFCFC" transform="translate(339.73828125,292.91796875)"/>
<path d="M0 0 C6.61099344 5.63436941 11.17673688 11.55616995 14.0625 19.7578125 C14.475 20.8715625 14.8875 21.9853125 15.3125 23.1328125 C17.66712492 34.51349962 15.50053326 45.65684502 9.375 55.5703125 C3.78565863 63.21001527 -2.964673 68.70254883 -11.9375 71.7578125 C-12.59492188 71.98210937 -13.25234375 72.20640625 -13.9296875 72.4375 C-24.82652796 75.63215604 -35.45442919 73.53377921 -45.484375 68.47265625 C-54.24760424 63.04851953 -60.61587477 55.51290135 -63.9375 45.7578125 C-64.16179687 45.10039062 -64.38609375 44.44296875 -64.6171875 43.765625 C-67.8504654 32.73704696 -65.82451151 21.60557294 -60.375 11.6328125 C-54.2731315 2.12419359 -45.48212649 -4.6810052 -34.5625 -7.4921875 C-22.27679941 -9.79837703 -10.20802034 -7.46836782 0 0 Z M-50.6875 11.6328125 C-56.62337669 19.87708567 -58.8983086 27.59867455 -57.9375 37.7578125 C-56.13746387 46.98907887 -52.11321179 53.67405686 -44.9375 59.7578125 C-36.42999261 65.09344575 -28.92861697 66.58850901 -18.9375 65.7578125 C-9.85714122 63.37019772 -2.30055507 58.49269756 3.0625 50.7578125 C7.77791736 41.89582178 9.65942474 33.09503427 7.484375 23.1015625 C4.61781431 14.86671544 -1.31568792 7.30486482 -9.125 3.2578125 C-10.38604438 2.73361366 -11.65632759 2.23069159 -12.9375 1.7578125 C-13.865625 1.3453125 -14.79375 0.9328125 -15.75 0.5078125 C-29.55762764 -2.74104106 -41.12671615 1.63744756 -50.6875 11.6328125 Z " fill="#2B2B2A" transform="translate(344.9375,287.2421875)"/>
<path d="M0 0 C2.64 0 5.28 0 8 0 C8 0.33 8 0.66 8 1 C5.36 1 2.72 1 0 1 C0 0.67 0 0.34 0 0 Z " fill="#1F1F1F" transform="translate(357,639)"/>
<path d="M0 0 C2.64 0 5.28 0 8 0 C8 0.33 8 0.66 8 1 C5.36 1 2.72 1 0 1 C0 0.67 0 0.34 0 0 Z " fill="#1F1F1F" transform="translate(275,639)"/>
<path d="M0 0 C0.33 0 0.66 0 1 0 C1 2.64 1 5.28 1 8 C0.67 8 0.34 8 0 8 C0 5.36 0 2.72 0 0 Z " fill="#1F1F1F" transform="translate(639,357)"/>
<path d="M0 0 C0.33 0 0.66 0 1 0 C1 2.64 1 5.28 1 8 C0.67 8 0.34 8 0 8 C0 5.36 0 2.72 0 0 Z " fill="#1F1F1F" transform="translate(639,275)"/>
<path d="M0 0 C2.31 0 4.62 0 7 0 C7 0.33 7 0.66 7 1 C4.69 1 2.38 1 0 1 C0 0.67 0 0.34 0 0 Z " fill="#222222" transform="translate(365,638)"/>
<path d="M0 0 C2.31 0 4.62 0 7 0 C7 0.33 7 0.66 7 1 C4.69 1 2.38 1 0 1 C0 0.67 0 0.34 0 0 Z " fill="#222222" transform="translate(268,638)"/>
<path d="M0 0 C0.33 0 0.66 0 1 0 C1 2.31 1 4.62 1 7 C0.67 7 0.34 7 0 7 C0 4.69 0 2.38 0 0 Z " fill="#222222" transform="translate(638,365)"/>
<path d="M0 0 C0.33 0 0.66 0 1 0 C1 2.31 1 4.62 1 7 C0.67 7 0.34 7 0 7 C0 4.69 0 2.38 0 0 Z " fill="#222222" transform="translate(1,365)"/>
<path d="M0 0 C0.33 0 0.66 0 1 0 C1 2.31 1 4.62 1 7 C0.67 7 0.34 7 0 7 C0 4.69 0 2.38 0 0 Z " fill="#272727" transform="translate(0,358)"/>
<path d="M0 0 C0.33 0 0.66 0 1 0 C1 2.31 1 4.62 1 7 C0.67 7 0.34 7 0 7 C0 4.69 0 2.38 0 0 Z " fill="#27271B" transform="translate(0,275)"/>
<path d="M0 0 C0.33 0 0.66 0 1 0 C1 2.31 1 4.62 1 7 C0.67 7 0.34 7 0 7 C0 4.69 0 2.38 0 0 Z " fill="#222222" transform="translate(638,268)"/>
<path d="M0 0 C0.33 0 0.66 0 1 0 C1 2.31 1 4.62 1 7 C0.67 7 0.34 7 0 7 C0 4.69 0 2.38 0 0 Z " fill="#222222" transform="translate(1,268)"/>
<path d="M0 0 C2.31 0 4.62 0 7 0 C7 0.33 7 0.66 7 1 C4.69 1 2.38 1 0 1 C0 0.67 0 0.34 0 0 Z " fill="#262626" transform="translate(365,1)"/>
<path d="M0 0 C2.31 0 4.62 0 7 0 C7 0.33 7 0.66 7 1 C4.69 1 2.38 1 0 1 C0 0.67 0 0.34 0 0 Z " fill="#262626" transform="translate(268,1)"/>
<path d="M0 0 C2.31 0 4.62 0 7 0 C7 0.33 7 0.66 7 1 C4.69 1 2.38 1 0 1 C0 0.67 0 0.34 0 0 Z " fill="#33331B" transform="translate(358,0)"/>
<path d="M0 0 C2.31 0 4.62 0 7 0 C7 0.33 7 0.66 7 1 C4.69 1 2.38 1 0 1 C0 0.67 0 0.34 0 0 Z " fill="#33331B" transform="translate(275,0)"/>
<path d="M0 0 C1.98 0 3.96 0 6 0 C6 0.33 6 0.66 6 1 C4.02 1 2.04 1 0 1 C0 0.67 0 0.34 0 0 Z " fill="#1A1A1A" transform="translate(372,637)"/>
<path d="M0 0 C1.98 0 3.96 0 6 0 C6 0.33 6 0.66 6 1 C4.02 1 2.04 1 0 1 C0 0.67 0 0.34 0 0 Z " fill="#1A1A1A" transform="translate(262,637)"/>
<path d="M0 0 C0.33 0 0.66 0 1 0 C1 1.98 1 3.96 1 6 C0.67 6 0.34 6 0 6 C0 4.02 0 2.04 0 0 Z " fill="#1A1A1A" transform="translate(637,372)"/>
<path d="M0 0 C0.33 0 0.66 0 1 0 C1 1.98 1 3.96 1 6 C0.67 6 0.34 6 0 6 C0 4.02 0 2.04 0 0 Z " fill="#2C2C2C" transform="translate(2,372)"/>
<path d="M0 0 C0.33 0 0.66 0 1 0 C1 1.98 1 3.96 1 6 C0.67 6 0.34 6 0 6 C0 4.02 0 2.04 0 0 Z " fill="#1A1A1A" transform="translate(637,262)"/>
<path d="M0 0 C0.33 0 0.66 0 1 0 C1 1.98 1 3.96 1 6 C0.67 6 0.34 6 0 6 C0 4.02 0 2.04 0 0 Z " fill="#2C2C2C" transform="translate(2,262)"/>
<path d="M0 0 C1.98 0 3.96 0 6 0 C6 0.33 6 0.66 6 1 C4.02 1 2.04 1 0 1 C0 0.67 0 0.34 0 0 Z " fill="#1A1A1A" transform="translate(372,2)"/>
<path d="M0 0 C1.98 0 3.96 0 6 0 C6 0.33 6 0.66 6 1 C4.02 1 2.04 1 0 1 C0 0.67 0 0.34 0 0 Z " fill="#1A1A1A" transform="translate(262,2)"/>
<path d="M0 0 C1.65 0 3.3 0 5 0 C5 0.33 5 0.66 5 1 C3.35 1 1.7 1 0 1 C0 0.67 0 0.34 0 0 Z " fill="#353520" transform="translate(378,636)"/>
<path d="M0 0 C1.65 0 3.3 0 5 0 C5 0.33 5 0.66 5 1 C3.35 1 1.7 1 0 1 C0 0.67 0 0.34 0 0 Z " fill="#353520" transform="translate(257,636)"/>
<path d="M0 0 C1.65 0 3.3 0 5 0 C5 0.33 5 0.66 5 1 C3.35 1 1.7 1 0 1 C0 0.67 0 0.34 0 0 Z " fill="#3A3A3A" transform="translate(383,635)"/>
<path d="M0 0 C1.65 0 3.3 0 5 0 C5 0.33 5 0.66 5 1 C3.35 1 1.7 1 0 1 C0 0.67 0 0.34 0 0 Z " fill="#3A3A3A" transform="translate(252,635)"/>
<path d="M0 0 C0.33 0 0.66 0 1 0 C1 1.65 1 3.3 1 5 C0.67 5 0.34 5 0 5 C0 3.35 0 1.7 0 0 Z " fill="#3A3A3A" transform="translate(635,383)"/>
<path d="M0 0 C0.33 0 0.66 0 1 0 C1 1.65 1 3.3 1 5 C0.67 5 0.34 5 0 5 C0 3.35 0 1.7 0 0 Z " fill="#3A3A3A" transform="translate(4,383)"/>
<path d="M0 0 C0.33 0 0.66 0 1 0 C1 1.65 1 3.3 1 5 C0.67 5 0.34 5 0 5 C0 3.35 0 1.7 0 0 Z " fill="#353535" transform="translate(636,378)"/>
<path d="M0 0 C0.33 0 0.66 0 1 0 C1 1.65 1 3.3 1 5 C0.67 5 0.34 5 0 5 C0 3.35 0 1.7 0 0 Z " fill="#353535" transform="translate(3,378)"/>
<path d="M0 0 C0.33 0 0.66 0 1 0 C1 1.65 1 3.3 1 5 C0.67 5 0.34 5 0 5 C0 3.35 0 1.7 0 0 Z " fill="#353535" transform="translate(636,257)"/>
<path d="M0 0 C0.33 0 0.66 0 1 0 C1 1.65 1 3.3 1 5 C0.67 5 0.34 5 0 5 C0 3.35 0 1.7 0 0 Z " fill="#353535" transform="translate(3,257)"/>
<path d="M0 0 C0.33 0 0.66 0 1 0 C1 1.65 1 3.3 1 5 C0.67 5 0.34 5 0 5 C0 3.35 0 1.7 0 0 Z " fill="#3A3A3A" transform="translate(635,252)"/>
<path d="M0 0 C0.33 0 0.66 0 1 0 C1 1.65 1 3.3 1 5 C0.67 5 0.34 5 0 5 C0 3.35 0 1.7 0 0 Z " fill="#3A3A3A" transform="translate(4,252)"/>
<path d="M0 0 C1.65 0 3.3 0 5 0 C5 0.33 5 0.66 5 1 C3.35 1 1.7 1 0 1 C0 0.67 0 0.34 0 0 Z " fill="#252525" transform="translate(383,4)"/>
<path d="M0 0 C1.65 0 3.3 0 5 0 C5 0.33 5 0.66 5 1 C3.35 1 1.7 1 0 1 C0 0.67 0 0.34 0 0 Z " fill="#252525" transform="translate(252,4)"/>
<path d="M0 0 C1.65 0 3.3 0 5 0 C5 0.33 5 0.66 5 1 C3.35 1 1.7 1 0 1 C0 0.67 0 0.34 0 0 Z " fill="#3A3A3A" transform="translate(378,3)"/>
<path d="M0 0 C1.65 0 3.3 0 5 0 C5 0.33 5 0.66 5 1 C3.35 1 1.7 1 0 1 C0 0.67 0 0.34 0 0 Z " fill="#3A3A3A" transform="translate(257,3)"/>
<path d="M0 0 C4 1 4 1 4 1 Z " fill="#282828" transform="translate(388,634)"/>
<path d="M0 0 C4 1 4 1 4 1 Z " fill="#282828" transform="translate(248,634)"/>
<path d="M0 0 C4 1 4 1 4 1 Z " fill="#2F2F2F" transform="translate(392,633)"/>
<path d="M0 0 C4 1 4 1 4 1 Z " fill="#2F2F2F" transform="translate(244,633)"/>
<path d="M0 0 C4 1 4 1 4 1 Z " fill="#2F2F2F" transform="translate(396,632)"/>
<path d="M0 0 C4 1 4 1 4 1 Z " fill="#2F2F2F" transform="translate(240,632)"/>
<path d="M0 0 C4 1 4 1 4 1 Z " fill="#141414" transform="translate(400,631)"/>
<path d="M0 0 C4 1 4 1 4 1 Z " fill="#141414" transform="translate(236,631)"/>
<path d="M0 0 C4 1 4 1 4 1 Z " fill="#2E2E14" transform="translate(404,630)"/>
<path d="M0 0 C4 1 4 1 4 1 Z " fill="#2E2E14" transform="translate(232,630)"/>
<path d="M0 0 C4 1 4 1 4 1 Z " fill="#141414" transform="translate(414,627)"/>
<path d="M0 0 C4 1 4 1 4 1 Z " fill="#141414" transform="translate(222,627)"/>
<path d="M0 0 C0.66 0.33 1.32 0.66 2 1 C1.01 1 0.02 1 -1 1 C-0.67 0.67 -0.34 0.34 0 0 Z " fill="#1A1A1A" transform="translate(528,564)"/>
<path d="M0 0 C1 4 1 4 1 4 Z " fill="#2E2E2E" transform="translate(630,404)"/>
<path d="M0 0 C1 4 1 4 1 4 Z " fill="#2E2E14" transform="translate(9,404)"/>
<path d="M0 0 C1 4 1 4 1 4 Z " fill="#141414" transform="translate(631,400)"/>
<path d="M0 0 C1 4 1 4 1 4 Z " fill="#2F2F14" transform="translate(8,400)"/>
<path d="M0 0 C1 4 1 4 1 4 Z " fill="#2F2F2F" transform="translate(632,396)"/>
<path d="M0 0 C1 4 1 4 1 4 Z " fill="#2F2F2F" transform="translate(7,396)"/>
<path d="M0 0 C1 4 1 4 1 4 Z " fill="#2F2F2F" transform="translate(633,392)"/>
<path d="M0 0 C1 4 1 4 1 4 Z " fill="#2F2F2F" transform="translate(6,392)"/>
<path d="M0 0 C1 4 1 4 1 4 Z " fill="#282828" transform="translate(634,388)"/>
<path d="M0 0 C1 4 1 4 1 4 Z " fill="#282828" transform="translate(5,388)"/>
<path d="M0 0 C1 4 1 4 1 4 Z " fill="#282828" transform="translate(634,248)"/>
<path d="M0 0 C1 4 1 4 1 4 Z " fill="#282828" transform="translate(5,248)"/>
<path d="M0 0 C1 4 1 4 1 4 Z " fill="#2F2F2F" transform="translate(633,244)"/>
<path d="M0 0 C1 4 1 4 1 4 Z " fill="#2F2F2F" transform="translate(6,244)"/>
<path d="M0 0 C1 4 1 4 1 4 Z " fill="#2F2F2F" transform="translate(632,240)"/>
<path d="M0 0 C1 4 1 4 1 4 Z " fill="#2F2F2F" transform="translate(7,240)"/>
<path d="M0 0 C1 4 1 4 1 4 Z " fill="#2F2F14" transform="translate(631,236)"/>
<path d="M0 0 C1 4 1 4 1 4 Z " fill="#2F2F14" transform="translate(8,236)"/>
<path d="M0 0 C1 4 1 4 1 4 Z " fill="#2E2E14" transform="translate(630,232)"/>
<path d="M0 0 C1 4 1 4 1 4 Z " fill="#141414" transform="translate(9,232)"/>
<path d="M0 0 C4 1 4 1 4 1 Z " fill="#141414" transform="translate(411,11)"/>
<path d="M0 0 C4 1 4 1 4 1 Z " fill="#141414" transform="translate(225,11)"/>
<path d="M0 0 C4 1 4 1 4 1 Z " fill="#141414" transform="translate(404,9)"/>
<path d="M0 0 C4 1 4 1 4 1 Z " fill="#141414" transform="translate(232,9)"/>
<path d="M0 0 C4 1 4 1 4 1 Z " fill="#2F2F2F" transform="translate(400,8)"/>
<path d="M0 0 C4 1 4 1 4 1 Z " fill="#2F2F2F" transform="translate(236,8)"/>
<path d="M0 0 C4 1 4 1 4 1 Z " fill="#2F2F2F" transform="translate(396,7)"/>
<path d="M0 0 C4 1 4 1 4 1 Z " fill="#2F2F2F" transform="translate(240,7)"/>
<path d="M0 0 C4 1 4 1 4 1 Z " fill="#2F2F2F" transform="translate(392,6)"/>
<path d="M0 0 C4 1 4 1 4 1 Z " fill="#2F2F2F" transform="translate(244,6)"/>
<path d="M0 0 C4 1 4 1 4 1 Z " fill="#2E2E2F" transform="translate(388,5)"/>
<path d="M0 0 C4 1 4 1 4 1 Z " fill="#2E2E2F" transform="translate(248,5)"/>
<path d="M0 0 C3 1 3 1 3 1 Z " fill="#3E3E3E" transform="translate(408,629)"/>
<path d="M0 0 C3 1 3 1 3 1 Z " fill="#3E3E3E" transform="translate(229,629)"/>
<path d="M0 0 C3 1 3 1 3 1 Z " fill="#1B1B1B" transform="translate(411,628)"/>
<path d="M0 0 C3 1 3 1 3 1 Z " fill="#1B1B1B" transform="translate(226,628)"/>
<path d="M0 0 C3 1 3 1 3 1 Z " fill="#1B1B1B" transform="translate(418,626)"/>
<path d="M0 0 C3 1 3 1 3 1 Z " fill="#1B1B1B" transform="translate(219,626)"/>
<path d="M0 0 C3 1 3 1 3 1 Z " fill="#1A1A1A" transform="translate(421,625)"/>
<path d="M0 0 C3 1 3 1 3 1 Z " fill="#1A1A1A" transform="translate(216,625)"/>
<path d="M0 0 C3 1 3 1 3 1 Z " fill="#252525" transform="translate(429,622)"/>
<path d="M0 0 C3 1 3 1 3 1 Z " fill="#252525" transform="translate(208,622)"/>
<path d="M0 0 C3 1 3 1 3 1 Z " fill="#242424" transform="translate(432,621)"/>
<path d="M0 0 C3 1 3 1 3 1 Z " fill="#242424" transform="translate(205,621)"/>
<path d="M0 0 C3 1 3 1 3 1 Z " fill="#252525" transform="translate(437,619)"/>
<path d="M0 0 C3 1 3 1 3 1 Z " fill="#252525" transform="translate(200,619)"/>
<path d="M0 0 C3 1 3 1 3 1 Z " fill="#252500" transform="translate(442,617)"/>
<path d="M0 0 C3 1 3 1 3 1 Z " fill="#252500" transform="translate(195,617)"/>
<path d="" fill="#1B1B1B" transform="translate(0,0)"/>
<path d="" fill="#1B1B1B" transform="translate(0,0)"/>
<path d="" fill="#3E3E3E" transform="translate(0,0)"/>
<path d="" fill="#3E3E1B" transform="translate(0,0)"/>
<path d="" fill="#3E3E3E" transform="translate(0,0)"/>
<path d="" fill="#3E3E3E" transform="translate(0,0)"/>
<path d="" fill="#3E3E3E" transform="translate(0,0)"/>
<path d="" fill="#3E3E3E" transform="translate(0,0)"/>
<path d="" fill="#1B1B1B" transform="translate(0,0)"/>
<path d="" fill="#1B1B1B" transform="translate(0,0)"/>
<path d="" fill="#1B1B1B" transform="translate(0,0)"/>
<path d="" fill="#1B1B1B" transform="translate(0,0)"/>
<path d="" fill="#1B1B1B" transform="translate(0,0)"/>
<path d="" fill="#1B1B1B" transform="translate(0,0)"/>
<path d="M0 0 C3 1 3 1 3 1 Z " fill="#252525" transform="translate(442,22)"/>
<path d="M0 0 C3 1 3 1 3 1 Z " fill="#252525" transform="translate(195,22)"/>
<path d="M0 0 C3 1 3 1 3 1 Z " fill="#252525" transform="translate(437,20)"/>
<path d="M0 0 C3 1 3 1 3 1 Z " fill="#252525" transform="translate(200,20)"/>
<path d="M0 0 C3 1 3 1 3 1 Z " fill="#252525" transform="translate(432,18)"/>
<path d="M0 0 C3 1 3 1 3 1 Z " fill="#252525" transform="translate(205,18)"/>
<path d="M0 0 C3 1 3 1 3 1 Z " fill="#1B1B1B" transform="translate(429,17)"/>
<path d="M0 0 C3 1 3 1 3 1 Z " fill="#1B1B1B" transform="translate(208,17)"/>
<path d="M0 0 C3 1 3 1 3 1 Z " fill="#1A1A1A" transform="translate(424,15)"/>
<path d="M0 0 C3 1 3 1 3 1 Z " fill="#1A1A1A" transform="translate(213,15)"/>
<path d="M0 0 C3 1 3 1 3 1 Z " fill="#1A1A1A" transform="translate(421,14)"/>
<path d="M0 0 C3 1 3 1 3 1 Z " fill="#1A1A1A" transform="translate(216,14)"/>
<path d="M0 0 C3 1 3 1 3 1 Z " fill="#1A1A1A" transform="translate(418,13)"/>
<path d="M0 0 C3 1 3 1 3 1 Z " fill="#1A1A1A" transform="translate(219,13)"/>
<path d="M0 0 C3 1 3 1 3 1 Z " fill="#1B1B1B" transform="translate(415,12)"/>
<path d="M0 0 C3 1 3 1 3 1 Z " fill="#1B1B1B" transform="translate(222,12)"/>
<path d="M0 0 C3 1 3 1 3 1 Z " fill="#3E3E3E" transform="translate(408,10)"/>
<path d="M0 0 C3 1 3 1 3 1 Z " fill="#3E3E3E" transform="translate(229,10)"/>
<path d="M0 0 C2 1 2 1 2 1 Z " fill="#272727" transform="translate(424,624)"/>
<path d="M0 0 C2 1 2 1 2 1 Z " fill="#282828" transform="translate(214,624)"/>
<path d="M0 0 C2 1 2 1 2 1 Z " fill="#292929" transform="translate(427,623)"/>
<path d="M0 0 C2 1 2 1 2 1 Z " fill="#292929" transform="translate(211,623)"/>
<path d="M0 0 C2 1 2 1 2 1 Z " fill="#292929" transform="translate(435,620)"/>
<path d="M0 0 C2 1 2 1 2 1 Z " fill="#292929" transform="translate(203,620)"/>
<path d="M0 0 C2 1 2 1 2 1 Z " fill="#282828" transform="translate(440,618)"/>
<path d="M0 0 C2 1 2 1 2 1 Z " fill="#282828" transform="translate(198,618)"/>
<path d="M0 0 C2 1 2 1 2 1 Z " fill="#292929" transform="translate(445,616)"/>
<path d="M0 0 C2 1 2 1 2 1 Z " fill="#292929" transform="translate(193,616)"/>
<path d="M0 0 C2 1 2 1 2 1 Z " fill="#282828" transform="translate(447,615)"/>
<path d="M0 0 C2 1 2 1 2 1 Z " fill="#282828" transform="translate(191,615)"/>
<path d="M0 0 C2 1 2 1 2 1 Z " fill="#000000" transform="translate(449,614)"/>
<path d="M0 0 C2 1 2 1 2 1 Z " fill="#000000" transform="translate(189,614)"/>
<path d="M0 0 C2 1 2 1 2 1 Z " fill="#373737" transform="translate(452,613)"/>
<path d="M0 0 C2 1 2 1 2 1 Z " fill="#373737" transform="translate(186,613)"/>
<path d="M0 0 C2 1 2 1 2 1 Z " fill="#363636" transform="translate(454,612)"/>
<path d="M0 0 C2 1 2 1 2 1 Z " fill="#363636" transform="translate(184,612)"/>
<path d="M0 0 C2 1 2 1 2 1 Z " fill="#282828" transform="translate(456,611)"/>
<path d="M0 0 C2 1 2 1 2 1 Z " fill="#282828" transform="translate(182,611)"/>
<path d="M0 0 C2 1 2 1 2 1 Z " fill="#282828" transform="translate(458,610)"/>
<path d="M0 0 C2 1 2 1 2 1 Z " fill="#282828" transform="translate(180,610)"/>
<path d="M0 0 C2 1 2 1 2 1 Z " fill="#363636" transform="translate(460,609)"/>
<path d="M0 0 C2 1 2 1 2 1 Z " fill="#363636" transform="translate(178,609)"/>
<path d="M0 0 C2 1 2 1 2 1 Z " fill="#373737" transform="translate(462,608)"/>
<path d="M0 0 C2 1 2 1 2 1 Z " fill="#373737" transform="translate(176,608)"/>
<path d="M0 0 C2 1 2 1 2 1 Z " fill="#373737" transform="translate(464,607)"/>
<path d="M0 0 C2 1 2 1 2 1 Z " fill="#363637" transform="translate(174,607)"/>
<path d="M0 0 C2 1 2 1 2 1 Z " fill="#363600" transform="translate(466,606)"/>
<path d="M0 0 C2 1 2 1 2 1 Z " fill="#363600" transform="translate(172,606)"/>
<path d="M0 0 C2 1 2 1 2 1 Z " fill="#282828" transform="translate(468,605)"/>
<path d="M0 0 C2 1 2 1 2 1 Z " fill="#282828" transform="translate(170,605)"/>
<path d="M0 0 C2 1 2 1 2 1 Z " fill="#282828" transform="translate(470,604)"/>
<path d="M0 0 C2 1 2 1 2 1 Z " fill="#282828" transform="translate(168,604)"/>
<path d="M0 0 C2 1 2 1 2 1 Z " fill="#000000" transform="translate(475,601)"/>
<path d="M0 0 C2 1 2 1 2 1 Z " fill="#000000" transform="translate(163,601)"/>
<path d="M0 0 C2 1 2 1 2 1 Z " fill="#000000" transform="translate(477,600)"/>
<path d="M0 0 C2 1 2 1 2 1 Z " fill="#000000" transform="translate(161,600)"/>
<path d="M0 0 C2 1 2 1 2 1 Z " fill="#282828" transform="translate(479,599)"/>
<path d="M0 0 C2 1 2 1 2 1 Z " fill="#282828" transform="translate(159,599)"/>
<path d="M0 0 C2 1 2 1 2 1 Z " fill="#000000" transform="translate(482,597)"/>
<path d="M0 0 C2 1 2 1 2 1 Z " fill="#000000" transform="translate(156,597)"/>
<path d="M0 0 C2 1 2 1 2 1 Z " fill="#282828" transform="translate(484,596)"/>
<path d="M0 0 C2 1 2 1 2 1 Z " fill="#282828" transform="translate(154,596)"/>
<path d="M0 0 C2 1 2 1 2 1 Z " fill="#000000" transform="translate(487,594)"/>
<path d="M0 0 C2 1 2 1 2 1 Z " fill="#000000" transform="translate(151,594)"/>
<path d="M0 0 C2 1 2 1 2 1 Z " fill="#282828" transform="translate(149,593)"/>
<path d="M0 0 C2 1 2 1 2 1 Z " fill="#000000" transform="translate(490,592)"/>
<path d="M0 0 C2 1 2 1 2 1 Z " fill="#282828" transform="translate(492,591)"/>
<path d="M0 0 C2 1 2 1 2 1 Z " fill="#363636" transform="translate(146,591)"/>
<path d="M0 0 C2 1 2 1 2 1 Z " fill="#373737" transform="translate(495,589)"/>
<path d="M0 0 C2 1 2 1 2 1 Z " fill="#363600" transform="translate(143,589)"/>
<path d="M0 0 C2 1 2 1 2 1 Z " fill="#000000" transform="translate(498,587)"/>
<path d="M0 0 C2 1 2 1 2 1 Z " fill="#000000" transform="translate(140,587)"/>
<path d="M0 0 C2 1 2 1 2 1 Z " fill="#000000" transform="translate(501,585)"/>
<path d="M0 0 C2 1 2 1 2 1 Z " fill="#000000" transform="translate(137,585)"/>
<path d="M0 0 C2 1 2 1 2 1 Z " fill="#000000" transform="translate(505,582)"/>
<path d="M0 0 C2 1 2 1 2 1 Z " fill="#000000" transform="translate(133,582)"/>
<path d="M0 0 C2 1 2 1 2 1 Z " fill="#272727" transform="translate(508,580)"/>
<path d="M0 0 C2 1 2 1 2 1 Z " fill="#272727" transform="translate(130,580)"/>
<path d="M0 0 C2 1 2 1 2 1 Z " fill="#353535" transform="translate(512,577)"/>
<path d="M0 0 C2 1 2 1 2 1 Z " fill="#353535" transform="translate(126,577)"/>
<path d="" fill="#282828" transform="translate(0,0)"/>
<path d="" fill="#282828" transform="translate(0,0)"/>
<path d="" fill="#282828" transform="translate(0,0)"/>
<path d="" fill="#282828" transform="translate(0,0)"/>
<path d="" fill="#373737" transform="translate(0,0)"/>
<path d="" fill="#373737" transform="translate(0,0)"/>
<path d="" fill="#373737" transform="translate(0,0)"/>
<path d="" fill="#000000" transform="translate(0,0)"/>
<path d="" fill="#000000" transform="translate(0,0)"/>
<path d="M0 0 C2 1 2 1 2 1 Z " fill="#353535" transform="translate(122,65)"/>
<path d="M0 0 C2 1 2 1 2 1 Z " fill="#353535" transform="translate(512,62)"/>
<path d="M0 0 C2 1 2 1 2 1 Z " fill="#353535" transform="translate(126,62)"/>
<path d="M0 0 C2 1 2 1 2 1 Z " fill="#353535" transform="translate(508,59)"/>
<path d="M0 0 C2 1 2 1 2 1 Z " fill="#353535" transform="translate(130,59)"/>
<path d="M0 0 C2 1 2 1 2 1 Z " fill="#000000" transform="translate(501,54)"/>
<path d="M0 0 C2 1 2 1 2 1 Z " fill="#000000" transform="translate(137,54)"/>
<path d="M0 0 C2 1 2 1 2 1 Z " fill="#000000" transform="translate(498,52)"/>
<path d="M0 0 C2 1 2 1 2 1 Z " fill="#000000" transform="translate(140,52)"/>
<path d="M0 0 C2 1 2 1 2 1 Z " fill="#000000" transform="translate(495,50)"/>
<path d="M0 0 C2 1 2 1 2 1 Z " fill="#000000" transform="translate(143,50)"/>
<path d="M0 0 C2 1 2 1 2 1 Z " fill="#363636" transform="translate(492,48)"/>
<path d="M0 0 C2 1 2 1 2 1 Z " fill="#373737" transform="translate(146,48)"/>
<path d="M0 0 C2 1 2 1 2 1 Z " fill="#373737" transform="translate(489,46)"/>
<path d="M0 0 C2 1 2 1 2 1 Z " fill="#363637" transform="translate(149,46)"/>
<path d="M0 0 C2 1 2 1 2 1 Z " fill="#000000" transform="translate(487,45)"/>
<path d="M0 0 C2 1 2 1 2 1 Z " fill="#000000" transform="translate(151,45)"/>
<path d="M0 0 C2 1 2 1 2 1 Z " fill="#373737" transform="translate(484,43)"/>
<path d="M0 0 C2 1 2 1 2 1 Z " fill="#373737" transform="translate(154,43)"/>
<path d="M0 0 C2 1 2 1 2 1 Z " fill="#000000" transform="translate(482,42)"/>
<path d="M0 0 C2 1 2 1 2 1 Z " fill="#000000" transform="translate(156,42)"/>
<path d="M0 0 C2 1 2 1 2 1 Z " fill="#363636" transform="translate(479,40)"/>
<path d="M0 0 C2 1 2 1 2 1 Z " fill="#363636" transform="translate(159,40)"/>
<path d="M0 0 C2 1 2 1 2 1 Z " fill="#373700" transform="translate(477,39)"/>
<path d="M0 0 C2 1 2 1 2 1 Z " fill="#363637" transform="translate(161,39)"/>
<path d="M0 0 C2 1 2 1 2 1 Z " fill="#000000" transform="translate(475,38)"/>
<path d="M0 0 C2 1 2 1 2 1 Z " fill="#000000" transform="translate(163,38)"/>
<path d="M0 0 C2 1 2 1 2 1 Z " fill="#373737" transform="translate(472,36)"/>
<path d="M0 0 C2 1 2 1 2 1 Z " fill="#373737" transform="translate(166,36)"/>
<path d="M0 0 C2 1 2 1 2 1 Z " fill="#282828" transform="translate(470,35)"/>
<path d="M0 0 C2 1 2 1 2 1 Z " fill="#282828" transform="translate(168,35)"/>
<path d="M0 0 C2 1 2 1 2 1 Z " fill="#373737" transform="translate(468,34)"/>
<path d="M0 0 C2 1 2 1 2 1 Z " fill="#373737" transform="translate(170,34)"/>
<path d="M0 0 C2 1 2 1 2 1 Z " fill="#373736" transform="translate(466,33)"/>
<path d="M0 0 C2 1 2 1 2 1 Z " fill="#363636" transform="translate(172,33)"/>
<path d="M0 0 C2 1 2 1 2 1 Z " fill="#373737" transform="translate(464,32)"/>
<path d="M0 0 C2 1 2 1 2 1 Z " fill="#373737" transform="translate(174,32)"/>
<path d="M0 0 C2 1 2 1 2 1 Z " fill="#373737" transform="translate(462,31)"/>
<path d="M0 0 C2 1 2 1 2 1 Z " fill="#373737" transform="translate(176,31)"/>
<path d="M0 0 C2 1 2 1 2 1 Z " fill="#373737" transform="translate(460,30)"/>
<path d="M0 0 C2 1 2 1 2 1 Z " fill="#373737" transform="translate(178,30)"/>
<path d="M0 0 C2 1 2 1 2 1 Z " fill="#363636" transform="translate(458,29)"/>
<path d="M0 0 C2 1 2 1 2 1 Z " fill="#363636" transform="translate(180,29)"/>
<path d="M0 0 C2 1 2 1 2 1 Z " fill="#282828" transform="translate(456,28)"/>
<path d="M0 0 C2 1 2 1 2 1 Z " fill="#282828" transform="translate(182,28)"/>
<path d="M0 0 C2 1 2 1 2 1 Z " fill="#282828" transform="translate(454,27)"/>
<path d="M0 0 C2 1 2 1 2 1 Z " fill="#282828" transform="translate(184,27)"/>
<path d="M0 0 C2 1 2 1 2 1 Z " fill="#373737" transform="translate(452,26)"/>
<path d="M0 0 C2 1 2 1 2 1 Z " fill="#373737" transform="translate(186,26)"/>
<path d="M0 0 C2 1 2 1 2 1 Z " fill="#000000" transform="translate(449,25)"/>
<path d="M0 0 C2 1 2 1 2 1 Z " fill="#000000" transform="translate(189,25)"/>
<path d="M0 0 C2 1 2 1 2 1 Z " fill="#373737" transform="translate(447,24)"/>
<path d="M0 0 C2 1 2 1 2 1 Z " fill="#363637" transform="translate(191,24)"/>
<path d="M0 0 C2 1 2 1 2 1 Z " fill="#282828" transform="translate(445,23)"/>
<path d="M0 0 C2 1 2 1 2 1 Z " fill="#282828" transform="translate(193,23)"/>
<path d="M0 0 C2 1 2 1 2 1 Z " fill="#282828" transform="translate(440,21)"/>
<path d="M0 0 C2 1 2 1 2 1 Z " fill="#282828" transform="translate(198,21)"/>
<path d="M0 0 C2 1 2 1 2 1 Z " fill="#282828" transform="translate(435,19)"/>
<path d="M0 0 C2 1 2 1 2 1 Z " fill="#282828" transform="translate(203,19)"/>
<path d="M0 0 C2 1 2 1 2 1 Z " fill="#292929" transform="translate(427,16)"/>
<path d="M0 0 C2 1 2 1 2 1 Z " fill="#292929" transform="translate(211,16)"/>
<path d="" fill="#6E6E6E" transform="translate(0,0)"/>
<path d="" fill="#6D6D6E" transform="translate(0,0)"/>
<path d="" fill="#000000" transform="translate(0,0)"/>
<path d="" fill="#000000" transform="translate(0,0)"/>
<path d="" fill="#000000" transform="translate(0,0)"/>
<path d="" fill="#000000" transform="translate(0,0)"/>
<path d="" fill="#000000" transform="translate(0,0)"/>
<path d="" fill="#000000" transform="translate(0,0)"/>
<path d="" fill="#515151" transform="translate(0,0)"/>
<path d="" fill="#000000" transform="translate(0,0)"/>
<path d="" fill="#000000" transform="translate(0,0)"/>
<path d="" fill="#000000" transform="translate(0,0)"/>
<path d="" fill="#000000" transform="translate(0,0)"/>
<path d="" fill="#000000" transform="translate(0,0)"/>
<path d="" fill="#000000" transform="translate(0,0)"/>
<path d="" fill="#000000" transform="translate(0,0)"/>
<path d="" fill="#000000" transform="translate(0,0)"/>
<path d="" fill="#000000" transform="translate(0,0)"/>
<path d="" fill="#515151" transform="translate(0,0)"/>
<path d="" fill="#515151" transform="translate(0,0)"/>
<path d="" fill="#4E4E4E" transform="translate(0,0)"/>
<path d="" fill="#4E4E4E" transform="translate(0,0)"/>
<path d="" fill="#000000" transform="translate(0,0)"/>
<path d="" fill="#000000" transform="translate(0,0)"/>
<path d="" fill="#4E4E4E" transform="translate(0,0)"/>
<path d="" fill="#4E4E4E" transform="translate(0,0)"/>
<path d="" fill="#000000" transform="translate(0,0)"/>
<path d="" fill="#000000" transform="translate(0,0)"/>
<path d="" fill="#4D4D4E" transform="translate(0,0)"/>
<path d="" fill="#4D4D4E" transform="translate(0,0)"/>
<path d="" fill="#6B6B00" transform="translate(0,0)"/>
<path d="" fill="#6B6B00" transform="translate(0,0)"/>
<path d="" fill="#4B4B00" transform="translate(0,0)"/>
<path d="" fill="#4B4B00" transform="translate(0,0)"/>
<path d="" fill="#000000" transform="translate(0,0)"/>
<path d="" fill="#000000" transform="translate(0,0)"/>
<path d="" fill="#000000" transform="translate(0,0)"/>
<path d="" fill="#000000" transform="translate(0,0)"/>
<path d="" fill="#4E4E4E" transform="translate(0,0)"/>
<path d="" fill="#4E4E4E" transform="translate(0,0)"/>
<path d="" fill="#000000" transform="translate(0,0)"/>
<path d="" fill="#000000" transform="translate(0,0)"/>
<path d="" fill="#000000" transform="translate(0,0)"/>
<path d="" fill="#000000" transform="translate(0,0)"/>
<path d="" fill="#4E4E4E" transform="translate(0,0)"/>
<path d="" fill="#4E4E4E" transform="translate(0,0)"/>
<path d="" fill="#4C4C4C" transform="translate(0,0)"/>
<path d="" fill="#4C4C4C" transform="translate(0,0)"/>
<path d="" fill="#4C4C4C" transform="translate(0,0)"/>
<path d="" fill="#4B4B4B" transform="translate(0,0)"/>
<path d="" fill="#000000" transform="translate(0,0)"/>
<path d="" fill="#000000" transform="translate(0,0)"/>
<path d="" fill="#000000" transform="translate(0,0)"/>
<path d="" fill="#000000" transform="translate(0,0)"/>
<path d="" fill="#000000" transform="translate(0,0)"/>
<path d="" fill="#000000" transform="translate(0,0)"/>
<path d="" fill="#000000" transform="translate(0,0)"/>
<path d="" fill="#000000" transform="translate(0,0)"/>
<path d="" fill="#6A6A6A" transform="translate(0,0)"/>
<path d="" fill="#6A6A6A" transform="translate(0,0)"/>
<path d="" fill="#676767" transform="translate(0,0)"/>
<path d="" fill="#676767" transform="translate(0,0)"/>
<path d="" fill="#676767" transform="translate(0,0)"/>
<path d="" fill="#676767" transform="translate(0,0)"/>
<path d="" fill="#676767" transform="translate(0,0)"/>
<path d="" fill="#676767" transform="translate(0,0)"/>
<path d="" fill="#676767" transform="translate(0,0)"/>
<path d="" fill="#676767" transform="translate(0,0)"/>
<path d="" fill="#676767" transform="translate(0,0)"/>
<path d="" fill="#676767" transform="translate(0,0)"/>
<path d="" fill="#676767" transform="translate(0,0)"/>
<path d="" fill="#676767" transform="translate(0,0)"/>
<path d="" fill="#676767" transform="translate(0,0)"/>
<path d="" fill="#676767" transform="translate(0,0)"/>
<path d="" fill="#65656A" transform="translate(0,0)"/>
<path d="" fill="#65656A" transform="translate(0,0)"/>
<path d="" fill="#A1A100" transform="translate(0,0)"/>
<path d="" fill="#A1A100" transform="translate(0,0)"/>
<path d="" fill="#4C4C4C" transform="translate(0,0)"/>
<path d="" fill="#4C4C4C" transform="translate(0,0)"/>
<path d="" fill="#4C4C4E" transform="translate(0,0)"/>
<path d="" fill="#4C4C4C" transform="translate(0,0)"/>
<path d="" fill="#4E4E00" transform="translate(0,0)"/>
<path d="" fill="#4E4E4E" transform="translate(0,0)"/>
<path d="" fill="#000000" transform="translate(0,0)"/>
<path d="" fill="#000000" transform="translate(0,0)"/>
<path d="" fill="#3C3C3F" transform="translate(0,0)"/>
<path d="" fill="#4C4C4E" transform="translate(0,0)"/>
<path d="" fill="#4F4F00" transform="translate(0,0)"/>
<path d="" fill="#4E4E00" transform="translate(0,0)"/>
<path d="" fill="#4E4E4E" transform="translate(0,0)"/>
<path d="" fill="#4E4E4E" transform="translate(0,0)"/>
<path d="" fill="#000000" transform="translate(0,0)"/>
<path d="" fill="#6B6B6B" transform="translate(0,0)"/>
<path d="" fill="#6B6B6B" transform="translate(0,0)"/>
<path d="" fill="#4E4E4E" transform="translate(0,0)"/>
<path d="" fill="#4E4E4E" transform="translate(0,0)"/>
<path d="" fill="#6B6B6B" transform="translate(0,0)"/>
<path d="" fill="#6B6B6B" transform="translate(0,0)"/>
<path d="" fill="#6B6B6B" transform="translate(0,0)"/>
<path d="" fill="#6B6B6B" transform="translate(0,0)"/>
<path d="" fill="#4E4E4E" transform="translate(0,0)"/>
<path d="" fill="#4E4E4E" transform="translate(0,0)"/>
<path d="" fill="#4E4E4E" transform="translate(0,0)"/>
<path d="" fill="#4E4E4E" transform="translate(0,0)"/>
<path d="" fill="#000000" transform="translate(0,0)"/>
<path d="" fill="#000000" transform="translate(0,0)"/>
<path d="" fill="#4E4E4E" transform="translate(0,0)"/>
<path d="" fill="#4E4E4E" transform="translate(0,0)"/>
<path d="" fill="#4E4E4E" transform="translate(0,0)"/>
<path d="" fill="#4E4E4E" transform="translate(0,0)"/>
<path d="" fill="#4C4C4C" transform="translate(0,0)"/>
<path d="" fill="#4C4C4C" transform="translate(0,0)"/>
<path d="" fill="#000000" transform="translate(0,0)"/>
<path d="" fill="#000000" transform="translate(0,0)"/>
<path d="" fill="#4F4F4F" transform="translate(0,0)"/>
<path d="" fill="#4F4F4F" transform="translate(0,0)"/>
<path d="" fill="#3C3C3C" transform="translate(0,0)"/>
<path d="" fill="#3C3C3C" transform="translate(0,0)"/>
<path d="" fill="#000000" transform="translate(0,0)"/>
<path d="" fill="#000000" transform="translate(0,0)"/>
<path d="" fill="#6A6A6A" transform="translate(0,0)"/>
<path d="" fill="#6A6A6A" transform="translate(0,0)"/>
<path d="" fill="#676767" transform="translate(0,0)"/>
<path d="" fill="#676767" transform="translate(0,0)"/>
<path d="" fill="#676767" transform="translate(0,0)"/>
<path d="" fill="#676767" transform="translate(0,0)"/>
<path d="" fill="#686868" transform="translate(0,0)"/>
<path d="" fill="#686868" transform="translate(0,0)"/>
<path d="" fill="#4B4B4B" transform="translate(0,0)"/>
<path d="" fill="#4B4B4B" transform="translate(0,0)"/>
<path d="" fill="#4B4B4B" transform="translate(0,0)"/>
<path d="" fill="#4C4C4C" transform="translate(0,0)"/>
<path d="" fill="#686868" transform="translate(0,0)"/>
<path d="" fill="#4B4B4B" transform="translate(0,0)"/>
<path d="" fill="#676767" transform="translate(0,0)"/>
<path d="" fill="#686868" transform="translate(0,0)"/>
<path d="" fill="#676767" transform="translate(0,0)"/>
<path d="" fill="#676767" transform="translate(0,0)"/>
<path d="" fill="#676767" transform="translate(0,0)"/>
<path d="" fill="#676767" transform="translate(0,0)"/>
<path d="" fill="#6A6A6A" transform="translate(0,0)"/>
<path d="" fill="#6A6A6A" transform="translate(0,0)"/>
<path d="" fill="#000000" transform="translate(0,0)"/>
<path d="" fill="#000000" transform="translate(0,0)"/>
<path d="" fill="#000000" transform="translate(0,0)"/>
<path d="" fill="#000000" transform="translate(0,0)"/>
<path d="" fill="#000000" transform="translate(0,0)"/>
<path d="" fill="#000000" transform="translate(0,0)"/>
<path d="" fill="#4B4B4B" transform="translate(0,0)"/>
<path d="" fill="#4B4B4B" transform="translate(0,0)"/>
<path d="" fill="#4C4C4C" transform="translate(0,0)"/>
<path d="" fill="#4C4C4C" transform="translate(0,0)"/>
<path d="" fill="#4E4E4E" transform="translate(0,0)"/>
<path d="" fill="#4E4E4E" transform="translate(0,0)"/>
<path d="" fill="#000000" transform="translate(0,0)"/>
<path d="" fill="#000000" transform="translate(0,0)"/>
<path d="" fill="#000000" transform="translate(0,0)"/>
<path d="" fill="#000000" transform="translate(0,0)"/>
<path d="" fill="#4C4C51" transform="translate(0,0)"/>
<path d="" fill="#4C4C4E" transform="translate(0,0)"/>
<path d="" fill="#4E4E00" transform="translate(0,0)"/>
<path d="" fill="#4E4E4E" transform="translate(0,0)"/>
<path d="" fill="#000000" transform="translate(0,0)"/>
<path d="" fill="#000000" transform="translate(0,0)"/>
<path d="" fill="#4A4A4A" transform="translate(0,0)"/>
<path d="" fill="#4A4A4A" transform="translate(0,0)"/>
<path d="" fill="#6B6B6B" transform="translate(0,0)"/>
<path d="" fill="#6B6B6B" transform="translate(0,0)"/>
<path d="" fill="#000000" transform="translate(0,0)"/>
<path d="" fill="#4D4D4D" transform="translate(0,0)"/>
<path d="" fill="#4D4D4D" transform="translate(0,0)"/>
<path d="" fill="#000000" transform="translate(0,0)"/>
<path d="" fill="#000000" transform="translate(0,0)"/>
<path d="" fill="#4D4D4D" transform="translate(0,0)"/>
<path d="" fill="#4E4E4E" transform="translate(0,0)"/>
<path d="" fill="#000000" transform="translate(0,0)"/>
<path d="" fill="#000000" transform="translate(0,0)"/>
<path d="" fill="#4E4E4E" transform="translate(0,0)"/>
<path d="" fill="#4E4E4E" transform="translate(0,0)"/>
<path d="" fill="#000000" transform="translate(0,0)"/>
<path d="" fill="#000000" transform="translate(0,0)"/>
<path d="" fill="#000000" transform="translate(0,0)"/>
<path d="" fill="#000000" transform="translate(0,0)"/>
<path d="" fill="#000000" transform="translate(0,0)"/>
<path d="" fill="#000000" transform="translate(0,0)"/>
<path d="" fill="#000000" transform="translate(0,0)"/>
<path d="" fill="#000000" transform="translate(0,0)"/>
<path d="" fill="#000000" transform="translate(0,0)"/>
<path d="" fill="#000000" transform="translate(0,0)"/>
<path d="" fill="#6D6D6D" transform="translate(0,0)"/>
<path d="" fill="#6E6E6E" transform="translate(0,0)"/>
<path d="" fill="#6E6E6E" transform="translate(0,0)"/>
<path d="" fill="#6E6E6E" transform="translate(0,0)"/>
<path d="" fill="#000000" transform="translate(0,0)"/>
<path d="" fill="#6D6D00" transform="translate(0,0)"/>
</svg>
